<?xml version="1.0" encoding="UTF-8"?>
<svg id="Layer_2" data-name="Layer 2" xmlns="http://www.w3.org/2000/svg" viewBox="0 0 235.48 242.05">
  <defs>
    <style>
      .cls-1 {
        fill: none;
        stroke: #000;
        stroke-miterlimit: 10;
        stroke-width: .25px;
      }
    </style>
  </defs>
  <g id="Layer_1-2" data-name="Layer 1">
    <g>
      <path class="cls-1" d="M1.8,8.43C.31-13.78,11.58,22.5,18.63,26.52,14,21.25,1.35-13.6.13,6.11c9.47,63.75,70.66,50.26,48.81,61.66-3.55-5.2-25.53-7.62-10.7-4.23,5.24,1.86-11.71-1.3-6.14.44,1.48,2.2,4.05,2.29,6.31,3.37-1.82,1.36-11.43,5.11-7.15-.42-.65-.06-6.1,1.43-2.52-.84-2.52-.96-5.15-.81-8.42-.42-3.05-1.56-12.8,6.63-17.67,2.11,1.96,4.77,5.9,3.44,9.26,2.95-3.82,3.84-8.92,6.61-10.73,12.2-2.07-4.76,5.41-7.31,5.06-10.09-5.54.61-7.79,18.08-3.57,8.83,5.07,11.84,17.04,28.42,32.82,23.57-1.6,3.44,3.6-.12,6.43.5,3.04.92-1.35,3.98-3.06,3.71,8.06,3.22,18.26-18.88,15.57,0,6.53-7.71-3.22,10.73-7.12,11.17-6.29,4.52,2.33,1.33,5.43.4-1.08,1.87-2.06,4.75-3.18,6.49-3.38,1.87-5.61,13.33-.6,7.19.87,4.57-.89,14.58-6.7,14.07-3.2-3.37-2.69-.83-1.29,1.92,1.93,1.6,3.69-1.95,5.68-2.11,1.16,3.14,3.08.86,5.69-2.94,1.35,3.76-3.61,8.93-8.42,7.36,6.85-3.21-5.6,2.19-7.57-2.31.38,4.08,7.61,3.79,10.54,3.18,10.7-2.99,12.17-17.63,6.29-20.01,7.84-1.22,1.96,5.1,5.89,8.42-.67.8-1.65.88.03,1.49-.05.93-3.79,12.2-4.86,9.02-1.55,4.56-8.87,10.77-7.58,14.72,0,0,2.74-2.52,2.74-2.52-.05.9-.87,1.87.84,1.47-1.01,1.92-2.87,8.85.42,6.53,0,0,.42,1.26.42,1.26,1.55,5.55-3.32,10.27-.43,15.57,0,0,.43-6.31.43-6.31.7.57.96,1.23,2.1.42-1.68,6.25.99,11.78-2.39,17.47-2.28,1.95.91,10.94,2.21,8.84,3.82-12.78,3.44-4.1.18-19.17,2.8-22.38,2.94,15.83,4.56,24.27,4.01,5.33-.85-.41,4.7-7.86,1.81,3.55,20.54,39.55,21.46,28.2,3.69.57,1.73-2.43.84-4.21-1.59-7.84,5.33-11.18,5.48-18.32,1.15-4.4.29,9.33,5.46,8.22.19,4.38,1.02,3.16,1.27-.42,1.82.97,3.02,5.58,3.36,8,4.48.36-1.96-12.3,4.63-2.95-.8,2.39,1.21,2.56-.84,4.2,7.3-3.84,3.93,5.18,2.95,9.68,3.88-4.42,2.33-1.02,4.42,2.1-1.72-3.19,4.27-12.99,5.16-7.26-.14,6.37.98.27,2.42-1.15,0,0,2.32,2.51,2.32,2.51,7.53-3.06,3.74,5.98,5.25-7.14,1.2,3.99,1.82-10.63,3.58-4.63-1.16,10.69,2.58-1.52,4.2-4.21.54,9.48.95,2.19,5.06-2.1,1.22-1.19-.52-10.02,1.05-6.73,1.34-2.53.19,7.06,3.16,8.41,1.57,2.48,3.06,4.14,3.37,7.8-.4,2.62-.62,7.17,2.04,2.87,2.18-4.13-2.6-8.45-2.89-11.94,2.03.35,1.56,3.78,3.36,4.63-3.66-3.97,3.1-17.4,2.53-11.78-7.34,7.62,2.8,10.89.32,19.05-.16,3.37-4.72,4.67-2.59,7.07,6.4-.04,8.36-16.31,11.31-14.35,6.71-1.22,9.29-19.13,14.87-9.78.37,1.56-1.78,6.38.59,3.36,2.29-5.18,3.29-14.79-1.99-7.46,6.87-4.69,3.21-28.95,6.1-24.83,2.58,9.15-4.09,20.31,2.53,27.36,5.07-7.6-5.63-23.37.84-27.36.88,10.74,2.59-1.5-.33-4.95-1-6.95,4.39-5.98,1.6-12.72,0,0,1.48.83,1.48.83-1.22-4.4,5.18,1.29,3.57,5.9-3.04-6.2-2.05-2.78-1.05,2.11,2.7-4,.06-.34,1.68.42,4.03-2.14,1.08-17.39,1.9-9.47.39,3.67-1.01,4.06-2.1,6.94.6-4.11-.94-9.6-5.26-10.48-2.81-1.88-3.8-6.42-.22-1.72-.24-1.92-5.64-13.87-6.51-10.52-1.94-3.18-3.12-7.24-.22-9.25-.88,3.8,1.77,6.44,3.16,9.26,10.97,5.56-3.05-2.99.21-8.84.89,6.05,7,12.55,13.46,11.78-1.91-1.4-9.47-1.91-10.94-6.73-1.11-4.1,2.31,3.11,4.62,1.46,6.37,7.84,7.8-4,5.46-.45-7.64,4.68-8.3-10.7-7.97-13.21,4.3,4.1,2.37-.75,2.5-3.98-3.42-6.19-9.9-11.18,1.5-7.8-.19-2.02-7.79-7.41-8.21-12.21-1.12,2.69-5.43-3.08-3.15-3.79.6,3.34.71-.88.63-1.68,1.97,4.58,1.08.54.45-1.51,1.31-7.07,9.76,7.4,16.59,6.56,1.22-1.3-6.51-1.64-3.59-4.45,1.54-1.14,14.28,4.19,9.28.23,14.58,1.49,26.46-12.06,29.04-25.25,3.78,2.71-2.62,12.72,2.56,5.26,3.07-5.36-6.98-16.72-1.3-7.79-2.17.42-5.68-4.56-8-5.65-7.75-4.73,5.08,1.15,7.16-3.82-6.79.99-15.48-4.16-23.56-3.57,4.25,3.17-9.24-.04-2.53,4.2-.87,1.09-8.64-.29-8.83-2.93,5.66-2.02,7.14-2.93-.42-2.53,9.04-4.24-8.32.57-10.94,3.79-18.52-11.36,43.27-2.61,49.65-61.24-.46-25.73-20.56,48.13-64.92,32.08-6.3-2.74-3.98-4.97,1.8-2.82.93-.99-2.2-2.52-2.94-2.53,3.96-.36.49-1,0-2.3,8.2-1.53-6.53-4.83-1.58-7.05,8.88-1.43-2.61-3.62-5.88-1.67-.92,1.84-8.23,4.07-5.6.94-.74-.37-3.23.15-2.94-1.27-.02-.06,10.33.63,7.04-.94-22.49-2.81-3.04.13-13.35-11.48-.44,2.83,1.52,8.88-2.95,8.85,3.27.38.16,1.75-1.85,1.06-5.83-.62-7.85,15.25-9.45,7.03,1.11-2.88,7.45-6.83,6.26-7.88-.39-.14-2.37-.55-1.68-1.26.23-.23,3.57-.3,2.52-1.26-8.18.81-8.23-6.66-13.88-9.68,2.09,1.04,4.34,5.13,1.68,7.15.27-.45-.24-4.43-1.27-3.36,1.51,8.54-1.88-4.94-7.15-4.63,3.41,2.51,5.53,5.88,1.68,9.25-.12-9.72.71-4.48-2.31.84-2.03-3.13-7.35-6.2-5.68-9.68-3.68.3-.69,7.68,0,10.1-9.37-10.48-15.76.12-14.72-13.46-3.03,9.31-.16,6.14-8.84,9.25,17.67.08-32.78,12.51-6.73,10.1-5.92-1.77,2.7-.21,3.37-.41-5.17,1.06,1.17,1.22,2.11,1.68-.73,1.75-2.93-.34-4.43-.37-7.77,1.69,13.14,5.2-10.81,4.96-.19-1.28-8.9-4.31-2.63-3.31,3.58-.56-.74-1.07-1.46-2.35-9.83-3.16-10.09,9.51-11.39,14.95,2.32.22,2.87-2.62,4.63-2.94-1.15,1.66.77,4.19-.84,5.05-11.58,5.38-42.45-12.42-38.25-8.68,14.14,10.16,28.31,10.37,42.04,9.52,1.82,3-.1,18.32-1.68,10.1.67,5.84-2.68,3.73-1.89-.42-1.56,7.27-2.46,4.1-3.15-.42.85,5.79-4.72,7.09-2.53.42-1.41,2.42-.33,5.14-4.2,4.2-.48-.42,2.6-4.88.42-4.63C34.85,65.49,3.55,25.95,1.8,8.43Z"/>
      <path class="cls-1" d="M82.6,26.11c-.59-.3-1.12.27-.84.41.59.3,1.12-.27.84-.41Z"/>
      <path class="cls-1" d="M172.45,30.73v.42c.27-.14.27-.28,0-.42Z"/>
      <path class="cls-1" d="M197.07,152.36c-.59-.3-1.12.27-.84.41.59.3,1.12-.27.84-.41Z"/>
      <path class="cls-1" d="M183.39,153.19v.42c.27-.14.27-.28,0-.42Z"/>
      <path class="cls-1" d="M41.78,165.19c-.22,2.91-.52,9.86,2.94,10.73-3.97-8.83,2.86-15.27,7.16-22.09-5.35,3.75-19.25,2.78-5.06,4-.92,2.76-4.58,8.51-4.21,12.2-1.53-.31,1.3-8.16-.84-4.84Z"/>
      <path class="cls-1" d="M195.8,155.3c-7.36,4.58-16.94-6.03-7.56,5.89.97-6.29,4.67-.12,7.56-5.89Z"/>
      <path class="cls-1" d="M189.91,161.61c-2.45-.68,1.17,3.32,1.26,3.78-.27-.58-1.12-3.64-1.26-3.78Z"/>
      <path class="cls-1" d="M192.43,170.03l-1.25-4.21c.22,1.72-.88,3.81,1.25,4.21Z"/>
      <path class="cls-1" d="M149.93,224.31c.3-.59-.27-1.12-.41-.84-.3.59.27,1.12.41.84Z"/>
      <path class="cls-1" d="M62.4,207.48c0-.07-.33-.99-.42-1.26.07.28.3.91.42,1.26Z"/>
      <path class="cls-1" d="M61.98,206.22c-.06-.19-.3-.46-.42-.84.03.12.32.45.42.84Z"/>
      <path class="cls-1" d="M61.98,193.17c-1.6,21.86-3.65,1.62-1.26-9.26,1.77-1.34.12,2.1,1.26,2.1.11-1.22-.44-3.51.85-4.21.71,3.27-1.17,8.43-.84,11.36Z"/>
      <path class="cls-1" d="M56.09,191.07c.46-3.24-.49-8.87,2.52-10.94-.11,1.58-.16,3.92,1.27,1.68-.33,7.3-3.32,12.27-2.52,19.78-1.55-3.29-1.46-6.96-1.26-10.52Z"/>
      <path class="cls-1" d="M51.04,146.88c-.21.62-1.65,2.39-1.68,2.52-2.25.16,3.53-6.49,1.68-2.52Z"/>
      <path class="cls-1" d="M7.7,90.49c-2.22-3.57-.86-3.75.21-6.73,2.35,5.33,3.37,10.05,8.63,13.26-3.47.67-7.13-3.77-8.84-6.52Z"/>
      <path class="cls-1" d="M223.58,95.54c-8.21,4.36-3.84.69.84-2.74-4.95.71.57-3.19,1.48-5.26-.14,2.29-1.63,6.71.63,1.89.17.11-.56-11.84.72-7.04,1.31,4.83.63,9.69-3.66,13.14Z"/>
      <path class="cls-1" d="M145.73,18.53c-.05-.48.05-.41.41-.21-.06.27-.4.19-.41.21Z"/>
    </g>
  </g>
</svg>