<?xml version="1.0" encoding="UTF-8"?>
<svg id="Layer_2" data-name="Layer 2" xmlns="http://www.w3.org/2000/svg" viewBox="0 0 235.61 243.81">
  <defs>
    <style>
      .cls-1 {
        stroke: #000;
        stroke-miterlimit: 10;
        stroke-width: .25px;
      }
    </style>
  </defs>
  <g id="Layer_1-2" data-name="Layer 1">
    <g>
      <path class="cls-1" d="M1.87,9.58c-.25-2.32-.68-4.54-.38-6.91.14-1.12.72-2.22,2-1.43.49.31,4.03,9.15,4.75,10.6,2.79,5.59,5.98,11.51,10.46,15.84.19-1.93-1.79-3.32-2.86-4.92C11.15,15.81,7.83,8.56,4.4.94-.05-2.11,0,4.18.19,7.26c1.4,22.09,26.12,55.34,49.86,55.34h6.52c.16.77-.23.82-.7,1.19-1.14.88-2.51,1.54-3.72,2.59-1.16,1-1.73,2.81-3.15,2.53-4.54-4.16-11.21-5.61-17.25-5.89l6.56,1.66c.59-.04,1.18.77,1.44.86-3.1-.56-6.07-1.14-9.26-.84l1.68.42c1.48,2.2,4.05,2.29,6.31,3.37.42.62-4.81,1.89-5.47,2.1-.67.22-1.95.18-2.52.42l-.84-.42c.83-.71,1.94-1.1,1.68-2.52l-3.78.41,1.26-1.25c-.52.06-1.21-.11-1.68,0v-.84c-1.32.18-3.21-.48-4.21.42-.32-.02-2.4-.03-2.52,0l.22-.83c-.43.19-1.12.73-1.48.83-1.55.45-3.38.6-4.97,1.14-2.51.86-5.2,2.88-8.08,2.65-.61-.22-3.09-1.94-3.37-1.68,1.07,3.68,3.08,2.74,5.62,3.36.37.09.22.92.48.85.82-.25,1.78-1.74,3.16-1.26-.61,1.07-1.66,1.61-2.52,2.52-3.87,2.03-6.46,5.76-8.21,9.68-.87-2.29.97-4.23,1.47-6.31,1.01-.41,3.04-1.91,3.8-2.73.49-.53.18-1.04-.22-1.05-.71-.02-3.45,3.01-4,3.78-1.94,2.72-2.13,5.17-1.68,8.41.69.77,2.29-2.75,2.11-3.36l1.26,1.26c.31,2.13,1.61,5.65,2.92,7.31.34.43.84.23.87.26.13.3.28.56.42.84,2.93,6.01,12.67,14.56,19.98,14.75,2.4.06,4.99-.62,7.38-.86-.44.78-.59.93.41.84.31.74-1.34.11-.62.84,2.05.03,4.66-1.78,6.64-1.19,3.04.92-1.34,3.98-3.06,3.71.5,1.47,4.29-.1,5.43-.68,1.38-.7,1.65-1.45,2.57-2.27,1.2-1.09,1.97-2.35,3.37-2.95l5.05-2.52c-.8,2.72-1.03,5.57-.84,8.41,1.54-.75.44-3.07,2.52-2.53.2,1.37-.24,3.35-1.24,4.33-.43.42-1.06.34-1.66.97-1.65,1.73-3.23,6.33-5.33,8.18-.49.43-1.05-.02-1.42.22-.95.6-1.71,1.71-2.98,1.88.24.77,2.53.47,3.12.38,2.19-.34,3.01-1.91,5.29-1.86-1.08,1.87-2.06,4.75-3.18,6.49-.68,1.06-1.99,1.44-2.35,2.31-.78,1.87-.84,5.31-1.18,7.41l2.94-2.52c-.28,1.63.5,3.18.4,4.78-.21,3.11-3,7.26-5.02,9.53-.27-.04-.6.06-.84,0-.39-.09-.73-.05-1.23-.24-1.28-.49-1.31-1.76-2.55-1.86-.16.17.97,3.44,1.26,3.78,1.23,1.43,2.85-.7,3.79-1.26.5-.3,1.34-.57,1.89-.85.71.03-.95,1.88,1.9.85-.18.41-.53.73-.84,1.05l.21.21c.84.07,1.06-.84,1.47-1.27.81-.85.66-.48,1.26-1.68.14-.14.29-.27.42-.42.58-.69.75-.79,1.26-1.68l-.42,2.52,1.25.21c-.8.89-1.35,1.98-2.31,2.74-.9.72-6.29,3.5-6.94,1.89l2.94-1.47c-2.51.5-5.05,1.77-7.7,1.17-1.81-.41-1.38-1.92-2.82-2.01.38,4.08,7.61,3.79,10.54,3.18,5.8-1.22,10.06-8.21,10.07-13.91,0-1.55-1.1-3.31-.42-4.84-2.1.46-2.57.29-4.2-.85-.19-.74.75-.29.84-.41h.42c1.21,1.08,2.77-.16,4.21,0-.33,1.97-.23,4.88.04,6.92.11.83.27,1.57,1.22,1.5.17.76-.71.26-.83.42-.7.85.84.83.86,1.07.14,1.26-3.25,9.36-4.45,9.86-.4.17-.02-1.03-.42-.84-1.81.89-2.94,5.98-3.82,7.54-1,1.78-3.85,3.28-4.77,5.77-.23.64,1.02.78,1.01,1.41l2.73-2.52-.41,1.48h1.25c-1.18,2.39-1.48,4.69-1.25,7.36l1.68-.84.42,1.26c-.41,1.71.58,3.41.4,5.21-.23,2.27-2.36,4-2.09,6.34l1.27,4.02.43-6.31c.83.07-.02,1.04,1.26.84.24-.04.72-.58.84-.42-.19,1.47-.83,2.92-.87,4.42-.03,1.08.44,1.96.45,2.73.12,5.31-.16,5.75-1.97,10.32-.31.79-.98,2.61-.98,3.36,0,1.08,1.96,5.74,2.75,6.1.89.41.43-.48.45-.62.45-2.74-.65-3.94,1.88-5.89.47-.36,1.68-.59,1.68-.89,0-.74-.99-2.41-1.25-3.36-.68-2.41-1.9-6.69-2.13-9.02-.39-3.94.88-6.31,2.52-9.68.52,3.81-.31,6.04-.42,9.68-.09,2.98.07,3.97.84,6.73.16,2.8,1.08,4.58,1.26,7.15.26,3.74-1.25,6.83.35,10.38.5,1.11,2.79,3.65,2.09,1.27-.42-1.42-1.15-1.89-.65-3.77.49-1.85,3.58-2.88,3.26-5.37,1.13,3.34,1.86,3.16,3.12,5.5,1.01,1.87,1.08,4.57,2.76,6.5.82.94,3.55,2.01,3.99,2.74.55.92.98,4.4,1.83,6.16.57,1.18,3.21,5.03,4.05,6.05,1.58,1.9,6.69,6.94,5.7,1.24h2.11c.45-1.79-.75-2.95-1.26-4.21.45-2.93-.4-6.66,1.26-9.26.59-.28.6-.64.84-.84,2.85-2.34,3.13-4.75,3.37-8.22.06-.8-.47-1.69.84-1.46-.04,3.43.15,9.4,4.63,9.68.01,1.21.01,2.2.43,3.37,1.48-.48-.12-2.87.84-3.78.81-.77.96,1.19,1.26,1.26.33,2.48,2.4,4.2,2.11,6.73.8.1,1.46,0,1.68-.84.37-2.07-.48-3.56-.84-5.47.7-.69,3.83,2.33,3.79,3.36-.12,1.26-.95,1.93.42,2.38v.57c-.27.17-1.45,1.17-1.26,1.26.71.32,1.57-.83,1.68-.84.16-.02.68.48,1.01.44.13-.02.43-1.56,1.4-.32,1.96,2.5-1.06,7.63-1.15,10.4,3.88-4.42,2.33-1.02,4.42,2.1-1.21-4.58,1.66-6.45,4-9.67.65.16,1.05,1.86,1.15,2.41.19,1.01.09,2.04.1,3.05l2.31-4.2,2.32,2.51.84-1.26c1.02,1.15,1.44.41,1.68.42.45.02.88.18,1.26.42.63.68,1.23,1.31,2.1,1.68-.8-2.65-2.31-5.74-.62-8.41.53,1.87,2.59-.43.63-.84.21-2.23.93-4.22,2.94-5.47-.04.54.08,1.16,0,1.68,0,.07-.37.38-.42,1.26-.03.4-.03.86,0,1.26.49,6.25,2.88-2.9,3.37-4.21.31-.82.21-2.16,1.26-2.52l.63,5.47c1.12-1.06.51-2.84.63-4.21,1.88.33,3.56-1.68,3.79-3.37.96-2.4.16-5.44.43-7.99l.63,1.26.63-1.26c.07,3.17.05,7.39,2.53,9.68.53,1.12.84,1.89,2.1,2.52-.03.78,1.18,3.76,1.27,5.28.07,1.28-.68,2.6,0,3.56-.92,2.86,1.6.2,2.05-.68,1.37-2.66-.55-7.82-2.47-9.84-.14-.14-.27-.29-.42-.42,0-.14,0-.28,0-.42,0-.42,0-.84,0-1.26,2.03.35,1.56,3.78,3.36,4.63-1.38-4.03-1.83-12.82,3.79-13.47-.44.57-.91,1.23-1.26,1.68-.68.87-1.64,1.26-2.12,2.72-.96,2.85-.14,5.84.45,8.64l.83-1.26,1.27,1.68c-.17,2.33.29,4.98-.1,7.26-.11.62-1.76,4.4-2,4.52-.25.12-1.15-.12-1.26,0-.17.2.18,2.45.68,2.55,1.26.27,2.56-1.21,3.34-2.11,1.78-2.04,4.55-6.67,5.56-9.17.5-1.22.67-2.88,1.15-3.9.6-1.28.83.8,1.26.84.89.08,2.06-1.67,2.57-2.04.56-.41,1.45-.32,2.06-.9,1.73-1.66,2.44-5.55,3.57-7.27.56-.86,3.46-1.48,4.02-3.24.23,1.76,2.22,1.81,2.66,3.68.37,1.56-1.78,6.38.59,3.36,2.81-3.57,1.12-7.59,1.16-11.66-.76.05-.29,1.31-.63,2.09-.34.79-1.83,1.57-2.52,2.11-.88-1.23.5-1.25.99-1.94,3.42-4.76,4.68-11.33,4.27-17.2-.18-2.58-1.67-5.66-.41-8.21.3,1.05.92,1.62,1.26,2.52.07.18.39.33.42.42.1.32-.07.88,0,1.26.29,1.5.42,2.66.42,4.21,0,.28.02.56,0,.84-.22,3.89-1.77,7.67-2.44,11.47.19,2.14,2.24,2.12,2.69,3.67.29,1-.39,2.11-.17,3.48.05.32.9,2.7,1.59,2,.25-.26,2.03-6.51,2.03-6.94,0-.84-1.31-4.74-2.03-4.84-.52-1.56-.69-3-.84-4.63-.15-1.69-.02-2.72,0-4.21.04-2.56.21-4.67,0-7.15.59.42,1.03,1,1.68.42.07.45.42.87.46,1.87.03,1-.55,2.66-.46,2.76.69.73.89-.52,1.03-.84,2.08-4.52-.89-5.42-1.37-8.74-.17-1.2.45-2.2-.09-3.05.38-1.19.34-1.37.42-2.1.06-.54.43-1.22.42-1.68l1.68.84c-.03-2.25-.03-4.62-.84-6.73l1.48.83c-1.29-3.22.48-1.51,1.89,0,.08-.49-.34-1.12.42-1.26,1.03,2.38,1.55,4.51,1.26,7.15-1.22.21-.69-.28-.89-.98-.27-.91-.15-2.38-1.2-2.81.59,1.93.02,4.15,1.05,5.89.26-.4,1.42-1.86,1.47-2.1-.07.26-.8,2.96.2,2.52,1.06-.96,1.2-2.1,1.48-3.36,1.25-1.28.98-4.38.86-6.12-.02-.36-.24-3.82-1.28-2.71-.1.1.76,1.85.84,2.73.18,1.85-.25,2.94-.42,4.42l-.21-.41c-.46.64-1.27,2.21-1.47,2.94.34-1.45,0-5.27-.72-6.63-.28-.54-.22-.66-.96-.52-.47-1.08-.53-1.95-1.68-2.78-.8-.58-1.22-.13-1.9-.54-.82-.5-3.14-3.16-2.53-4.25l2.31,2.52c0-.82-.45-1.63-.77-2.38-.91-2.13-3.62-7.1-4.91-8.98-.13-.19-.52-.57-.62-.42l-.21,1.26c-.62-1.17-2.65-5.76-2.28-6.87.19-.55,1.02-.67,1.41-1.14.34-.41-.09-1.36.65-1.24-.1,1.94.05,4.95,1.26,6.55.3.4,1.02.46,1.3.9.31.48.24,1.39.6,1.82.33.39,4.39,1.88,5.26,2.1l-3.97-3.38c-.08-2.43-2.22-5.3-1.07-7.55.41,2.12.95,3.62,2.1,5.47,2.09,3.32,7.19,7.14,11.36,6.31,1.44-1.09-3.15-.82-3.54-.88-2.62-.4-6.13-3.6-7.4-5.85-.38-.67-.25-1.3-.42-1.68.96.47,2.25,2.87,2.96,3.18.78.34,1.42-.31,2.08-.04.99.4,2.04,2.36,4.03,2.73,2.56.48,1.46-.15,1.75-1.13.28-.96.73-1.86.97-2.84-.87-.9-.89.51-1.29.79-1.13.8-1.94,1.47-3.46,1.01-1.88-.57-5.31-8.24-4.92-10.44l.83.84-.41-4.63,2.94,2.1c-.45-1.87-.13-4.36-.44-6.08-.22-1.21-6.45-8.5-5.45-9.48,2.22.82,4.55,1.56,6.95,1.68,2.19.11-1.03-1.58-1.44-1.93-3.08-2.67-5.38-6.46-6.77-10.27l-.61.83c-1.62-.06-4.51-3.78-2.54-4.62.49-.21-.21,1.44.62,1.26v-2.94s1.26,2.52,1.26,2.52c.28-1.23-.79-3.08-.81-4.03,0-.2.83-.16.81-.37-.02-.34-1.21-1.95-.84-2.33,1.95.72,3.27,2.21,5.47,2.52.42.51,1.53,1.53,2.1,2.1,2.81,2.83,4.8,4.26,9.04,4.64.9-1.27-.93-.65-1.87-1.08-1.1-.5-3.23-2.33-1.72-3.37,1.74-1.2,9.25,2.84,10.54,1.49,1.01-1.06-1.53-.57-1.26-1.26h6.52c4.18,0,9.65-5.08,12.45-7.75.57-.54,2.01-1.06,2.29-1.5.24-.38-.27-.99-.22-1.27.17-.12.47-.12.84-.42.15-.12.3-.27.42-.42.3-.37.3-.67.42-.84.1-.1.8-.13,1.45-.86,2.41-2.7,4.25-8.62,4.86-12.19.43.8,1.07,1.51,1.26,2.52.01.62.38,1.32.29,1.82-.12.71-1.44,3.12-1.97,3.87,1.5-.15,2.58-1.6,2.98-2.95.5-1.71.28-4.44-.04-6.11-.43-2.23-1.62-5.23-4.21-5.47,1.18,1.28,1.99,2.32,2.95,3.78l-1.26.42c-1.02-1.57-3.99-4.73-5.89-5.05-.22-.18-.41-.67-.85-1.02-.93-.75-3.05-1.07-2.94-2.34.97.26,3.39-.31,3.38,1.26l.41-.42c1.4.47,5.64-.55,6.31-2.32.51-1.36-1.81.12-2.33.2-.98.15-2.12,0-3.14.02-3.49-.57-6.33-3.02-9.93-3.33-.67-.06-1.37.42-2.02.35-2.01-.23-3.99-1.18-6.15-.8l1.26,1.25c-1.71-.01-3,.53-4.63.85-.38.07-1.15-.24-1.26.21l2.1,1.9v.42c-.17-.01-.6.35-.84.42-1.54-.97-3.67-1.34-5.47-1.26-.45-.24-3.06-1.73-2.52-2.52l5.89-2.33c-.81-.4-2.02-.2-2.94-.21-1.12,0-2.25,0-3.37,0l3.79-1.68c-5.3-.15-10.43,2.55-14.73,5.47-.86-.52-1.75-2.08-2.75-2.94-.97-.83-2.38-1.39-3.29-2.18-.37-.32-1.08-.55-.28-1,.97-.54,3.52-.07,4.84-.21,25.28-2.61,49.54-29.89,51.13-54.92.19-2.97.29-9.92-4.21-6.73-5.84,12.46-10.61,25.17-23.13,32.42-11.68,6.76-24.28,8.47-37.58,6.4-2.07-.32-1.92-2.07-4.09-2.41.05-.07-.59-1.12-.42-1.26,2.3-.35,4.14.43,6.31.84.93-.99-2.2-2.52-2.94-2.53l2.1-.42c0-1.03-2.52-.96-2.1-1.88.57-1.26,2.35-.04,2.52-.22-.25-2.83-3.22-4.69-5.89-5.05l1.79-1.78,4.1-1.15c-2.94-1.25-6.99-1.98-9.98-.52-2.17,1.07-3.5,4.37-6.85,1.56l1.26-.62c-.74-.37-3.24.15-2.94-1.27h7.57c.17-.97-.06-.67-.54-.94-1.96-1.1-7.87-1.35-10.2-1.18-1.05.08-2,1.12-1.29-.73.04-.09,1.06-1.14,1.08-1.23.69-3.36-1.39-5.94-2.09-8.97-.58-.64-.76.04-.84.62-.37,2.88.95,6.27-1.26,8.63l-1.69.21,1.69.21c-1.24,2.05-1.7.65-3.54.85-3.28.36-5.92,4.12-6.57,7.15l-.83-.43.42,2.52c-1.7.44-2.97-.37-2.47-2.22.16-.6,1.05-1.01,1.39-1.59,1.7-2.89,2.49-3.13,4.87-5.44.17-.17,1.08-.57.84-.84-.26-.05-.64.07-.84,0-.39-.14-2.37-.55-1.68-1.26.23-.23,3.57-.3,2.52-1.26-.57-.52-6.78-1.43-7.96-1.31-.22-1.18-.42-2.39-.93-3.49-.56-1.22-1.17-1.32-1.64-1.94-.77-1.04-1.37-3.17-3.36-2.94.07.79,1.13.41,1.71,1.13.39.49,1.27,3.01,1.22,3.68-.03.44-.63,2.23-1.25,2.34.27-.45-.24-4.43-1.27-3.36-.14.15,1.41,3.21-.42,3.78.07-1.15-.05-2.28-.42-3.37-.78-2.25-4.12-4.3-6.31-5.05,3.41,2.51,5.53,5.88,1.68,9.25.76-2.36.73-4.86-1.05-6.73-.32,1.05.58,1.97.65,3.17.1,1.75-.63,3.23-1.91,4.4-.16-.59-.78-.88-1.05-1.26-1.47-2.04-3.17-3.12-4.22-4.52-1.25-1.68-.27-3.75-.41-3.89-1.46-1.39-1.71,2.81-1.71,3.57.02,2.79,1.16,3.98,1.7,6.52l-.48-.75c-.92.61-1.54-1.13-2.38-1.75-2.05-1.52-3.94-2.49-6.45-3.12-1.22-.3-4.73-.4-5.43-.88-1.19-.83.68-5,.83-6.36.09-.83-.09-.62-.81-.6-.31,2.8-3.24,4.64-1.27,7.57-.36.46-6.92-.21-7.58,1.68,1.7-.08,3.44.04,5.05.63-2.93,2.21-6.96,1.93-9.68,4.42-.57.53-1.06.82-1.26,1.68-2.33.62-5.75,1.51-7.9,2.41-.52.22-1.24.23-1.36.95h8.41s-2.1-.83-2.1-.83l5.47.42-2.52.83,4.63.85c-.73,1.75-2.93-.34-4.43-.37-1.5-.03-1.36,1.79-3.14,1.21l4,1.68.63.84-1.26.43c-1.11.29-3.14.88-4.21,1.26-2.23-.56-4.62.3-6.82-.46-.69-.24-3.15-3.64-5.38-2.91.21-.85,2.04-.32,2.75-.4,3.28-.36.19-1.02-.52-1.42-.19-.11-.17-.6-.94-.93-3.21-1.38-7.33-.13-8.55,3.28-.62,1.74.05,4.67-2.42,4.52-.1.77.88,0,.88,1.02,0,1.1-1.74,5.65-1.3,6.13.76-.05,1.94-.61,2.51-1.06.81-.66.94-1.95,2.12-1.88-1.15,1.66.77,4.19-.84,5.05-11.87,1.28-23.03-.9-33.37-6.82-2.06-1.18-3.88-2.84-5.74-3.93-.65-.38-.99-.81-1.91-.61.21,1.09,1.87,2.03,2.78,2.69,10.65,7.69,18.3,8.55,30.85,9.97,1.63.18,2.68,1.73,2.36-.46.78-.15.14.73.63.84.98.22.41-.74.9-.86.9-.23,3.75.29,5,.21.33-.02,2.19-.17,2.31-.2,1.47,4.19.78,8.48-.42,12.62-.08.28-.32.56-.42.84l-.84-3.36c-.09,1.66.68,4.11-1.69,3.78l-.21-4.2c-1.75,1.92,1.1,4.95-2.74,4.21.12-.89.04-2.22,0-3.16-.02-.51.32-1.56-.42-1.47.1,1.75-.32,3.4-.85,5.05-4.33.39-1.31-2.1-1.69-4.63-1.02.46-.72,3.77-1.31,4.15-.48.31-2.16-.09-2.89.05-.48-.42,2.6-4.88.42-4.63-.34,1.92-.21,4.76-2.67,4.6-21.42-1.42-38.3-18.67-45.1-37.86-.24-.67.09-1.49-1.04-1.25-.05-.26.05-.59,0-.84-.04-.2-.22-.36-.42-.42-.06-.54.07-1.15,0-1.68-.1-.75-.41-1.2-.42-1.26-.04-.27.04-.58,0-.84-.07-.43.17-1.05-.42-1.26Z"/>
      <path class="cls-1" d="M82.66,27.26c-.59-.3-1.12.27-.84.41.59.3,1.12-.27.84-.41Z"/>
      <path class="cls-1" d="M172.51,31.88v.42c.27-.14.27-.28,0-.42Z"/>
      <path class="cls-1" d="M197.13,153.5c-.59-.3-1.12.27-.84.41.59.3,1.12-.27.84-.41Z"/>
      <path class="cls-1" d="M183.45,154.34v.42c.27-.14.27-.28,0-.42Z"/>
      <path class="cls-1" d="M41.85,166.33c-.25,1.76,0,4.41,0,6.31,0,.43,1.99,5.41,2.94,4.42-1.23-3.06-1.51-7.03-.38-10.18.13-.35,1.06-1.26,1.43-2.45.17-.55-.23-1.15,0-1.66.44-1.02,3.28-3.06,4.01-4,.8-1.03,1.37-2.64,2.1-3.8l-5.29,2.7c-2.5.5-4.53-.61-6.92-.81.69,3.32,4.72,1.78,7.15,2.1.45.41-3.23,6.2-3.5,7.23-.43,1.62-.25,3.35-.71,4.97-.7.11-.45-1.02-.44-1.49.05-1.51.59-2.88.44-4.4-.42-.15-.81.88-.84,1.05Z"/>
      <path class="cls-1" d="M195.87,156.45c-2.24,1.04-4.39,1.59-6.91,1.22-2.07-.3-3.39-1.94-5.29-2.48.34,2.5,2.59,4.37,4.22,6.11.31.33.36.99.42,1.04,1.14.99.68-2.8.41-3.36,2.97.34,5.93.98,7.15-2.53Z"/>
      <path class="cls-1" d="M189.97,162.76c-.2-.2-1.14-.1-.83.62l2.1,3.16c-.27-.58-1.13-3.64-1.26-3.78Z"/>
      <path class="cls-1" d="M192.5,171.17l-1.25-4.21c.22,1.72-.88,3.81,1.25,4.21Z"/>
      <path class="cls-1" d="M149.99,225.46c.3-.59-.27-1.12-.41-.84-.3.59.27,1.12.41.84Z"/>
      <path class="cls-1" d="M62.47,208.63c0-.07-.33-.99-.42-1.26.07.28.3.91.42,1.26Z"/>
      <path class="cls-1" d="M62.05,207.36c-.06-.19-.3-.46-.42-.84.03.12.32.45.42.84Z"/>
      <path class="cls-1" d="M62.05,194.32c-1.65,4.22-1.24,6.67-.42,10.94.07.38-.08.9,0,1.26-1.5-4.61-2.97-8.53-2.1-13.47.52-2.97,1.03-4.85,1.26-8,1.76-1.34.12,2.1,1.26,2.1.11-1.22-.44-3.51.85-4.21v6.1c0,1.26-1.8,4.05-.84,5.26Z"/>
      <path class="cls-1" d="M56.16,192.21c.11-2.61.27-7.18,1.13-9.58.03-.09,1.1-1.29,1.39-1.36-.11,1.58-.16,3.92,1.27,1.68-.23,2.73-.94,6.25-.84,8.84-.34,1.25-1.22.36-1.26.42-.14.2-.14,1.51-.38,1.95l-.05,8.58c-.41-1.22-.92-2.56-1.26-3.79-.12-2.1-.09-4.62,0-6.73Z"/>
      <path class="cls-1" d="M51.11,148.03s-.32.65-.42.84c-.65.65-1.18,1.61-1.26,1.68-.12.09-.61-.08-.84,0,1.03-2.33,1.52-2.33,2.95-4.21-.17.55-.24,1.14-.42,1.68Z"/>
      <path class="cls-1" d="M7.76,91.64c-.23-.52-1.85-4.05-1.68-4.21.1-.09.89.16,1.16-.07.39-.34.21-2.02.73-2.45,1.13,1.18.88,2.9,1.51,4.38.51,1.18,1.91,2.24,2.26,3.21.3.85.08,1.9.43,2.51.21.37,3.91,2.05,4.42,3.15-3.19.78-6.51-3.4-8.41-5.68-.05-.06-.12-.46-.42-.84Z"/>
      <path class="cls-1" d="M223.64,96.69c-1.6,1.08-3.91,2.68-5.89,1.9,2.23-1.77,5.01-2.19,6.73-4.63-.36-.7-2.54,1-2.1-.41.41-1.29,2.86-3.47,3.57-4.85.6,1.42-.98,2.83-1.05,4.2.85.52,1.68-2.17,1.68-2.31v-8.21c.6-.1.61.74.72,1.17.27,1.08.09,3.28.21,3.64.2.64,1.17.54,1.17.86-.01.89-2.65,5.92-3.35,6.96-.38.38-.39.81-.42.84-.15.14-.29.27-.42.42-.08.09-.75-.13-.84.42Z"/>
      <path class="cls-1" d="M145.79,19.68v-.42l.41.21c-.06.27-.4.19-.41.21Z"/>
    </g>
  </g>
</svg>