<?xml version="1.0" encoding="UTF-8"?>
<svg id="Layer_2" data-name="Layer 2" xmlns="http://www.w3.org/2000/svg" viewBox="0 0 136.43 116.29">
  <defs>
    <style>
      .cls-1 {
        fill: #fff;
      }
    </style>
  </defs>
  <g id="Layer_1-2" data-name="Layer 1">
    <g>
      <path class="cls-1" d="M32.74,62.81c6.38,4.64,7.6,9.79,7.6,20.1,0,19.6-3.53,29.89-40.34,30.06V0c41.71.18,43.06,6.98,43.06,39.38,0,11.46-2.04,19.94-10.32,23.43ZM18.2,68.12c-9.24,0-10.46,3.31-10.46,9.63s2.31,9.63,10.46,9.63,11.41-2.83,11.41-9.63-2.04-9.63-11.41-9.63ZM20.51,37.39c-9.51,0-10.73,3.15-10.73,10.63s2.31,10.79,10.73,10.79,11.96-2.49,11.96-10.79-2.18-10.63-11.96-10.63Z"/>
      <path class="cls-1" d="M69.85,114.63c-19.29,0-20.24-19.93-20.24-104.32h9.92c.13,54.99,1.36,67.11,10.87,67.11,5.03,0,8.42-2.49,10.05-13.78.81-5.48,1.22-12.62,1.35-21.93.14-8.97.14-20.1.14-35.39h7.88c0,89.05-1.22,108.31-19.97,108.31Z"/>
      <path class="cls-1" d="M98.4,116.29v-34.39c19.83,0,26.21-3.33,26.21-6.98,0-4.49-.95-5.48-10.19-7.48-15.76-3.31-17.8-7.47-17.93-57.8l13.31.16c0,44.35,2.04,46.18,9.24,46.18,8.01,0,9.1-8.47,9.1-52.16h8.28v63.46c0,39.04-4.21,48.85-38.03,49.01Z"/>
    </g>
  </g>
</svg>