<?xml version="1.0" encoding="UTF-8"?>
<svg id="Layer_2" data-name="Layer 2" xmlns="http://www.w3.org/2000/svg" viewBox="0 0 346.97 252.29">
  <defs>
    <style>
      .cls-1 {
        fill: none;
      }
    </style>
  </defs>
  <g id="Layer_1-2" data-name="Layer 1">
    <path class="cls-1" d="M88.55,62.8c6.03,4.65,7.18,9.8,7.18,20.1,0,19.6-3.33,29.9-38.09,30.07V0c39.37.17,40.65,6.98,40.65,39.37,0,11.46-1.92,19.94-9.75,23.42ZM74.83,68.11c-8.72,0-9.88,3.32-9.88,9.63s2.18,9.64,9.88,9.64,10.77-2.82,10.77-9.64-1.92-9.63-10.77-9.63ZM77.01,37.38c-8.98,0-10.13,3.16-10.13,10.63s2.18,10.8,10.13,10.8,11.29-2.49,11.29-10.8-2.05-10.63-11.29-10.63Z"/>
    <path class="cls-1" d="M123.56,114.63c-18.21,0-19.11-19.94-19.11-104.33h9.36c.13,54.99,1.28,67.11,10.26,67.11,4.74,0,7.95-2.49,9.49-13.79.77-5.48,1.16-12.63,1.28-21.93.13-8.97.13-20.1.13-35.38h7.44c0,89.04-1.15,108.31-18.85,108.31Z"/>
    <path class="cls-1" d="M150.49,116.29v-34.39c18.72,0,24.75-3.32,24.75-6.98,0-4.48-.9-5.48-9.62-7.47-14.87-3.32-16.8-7.48-16.93-57.81l12.57.17c0,44.36,1.92,46.18,8.72,46.18,7.57,0,8.59-8.47,8.59-52.16h7.82v63.46c0,39.04-3.98,48.84-35.91,49.01Z"/>
    <path class="cls-1" d="M207.83,141.21c0,18.11,5.26,21.76,25.52,21.93v24.59c-26.29-.17-34.11-7.81-34.11-54.82s9.49-53.16,35.65-53.33v41.03c-23.47.17-27.06,2.82-27.06,20.6Z"/>
    <path class="cls-1" d="M264.12,184.9c-20.01,0-22.95-14.62-22.95-63.13,0-26.25,3.08-44.02,19.62-44.02,17.7,0,22.95,5.32,22.95,57.65,0,40.37-7.18,49.51-19.62,49.51ZM261.3,115.95c-11.29,0-12.7,8.81-12.7,23.43s2.82,23.76,12.7,23.76,13.85-7.15,13.85-23.76-2.69-23.43-13.85-23.43Z"/>
    <path class="cls-1" d="M322.73,185.56c-.77-4.15-3.21-26.41-5.13-26.41-2.18,0-5,25.25-5.64,30.4h-15.77l-8.98-106.16h8.34c2.95,28.08,4.49,43.52,5.9,52.49,1.28,7.64,1.54,10.97,3.98,10.97,2.95,0,5-12.79,8.21-59.31h7.82c1.92,22.26,2.82,34.89,3.98,42.2.9,6.48,1.03,9.63,3.46,9.63,3.59,0,5.51-7.48,11.03-55.65h7.05l-10,101.84h-14.23Z"/>
    <path class="cls-1" d="M0,252.29v-30.57c11.67-.5,14.62-6.15,14.62-23.59v-60.3h9.23v51.5c0,52.83-2.18,62.63-23.85,62.96Z"/>
    <path class="cls-1" d="M50.01,251.29c-18.21,0-19.11-19.94-19.11-104.33h9.36c.13,54.99,1.28,67.11,10.26,67.11,4.75,0,7.95-2.49,9.49-13.79.77-5.48,1.15-12.63,1.28-21.93.13-8.97.13-20.1.13-35.38h7.44c0,89.04-1.15,108.31-18.85,108.31Z"/>
    <path class="cls-1" d="M76.56,142.48h10v102.67h-10v-102.67Z"/>
    <path class="cls-1" d="M102.72,202.12c0,18.11,5.26,21.76,25.52,21.93v24.59c-26.29-.17-34.11-7.81-34.11-54.82s9.49-53.16,35.65-53.33v41.03c-23.47.17-27.06,2.82-27.06,20.6Z"/>
    <path class="cls-1" d="M137.48,145.14h32.96v34.39c-24.49,0-25.52,1.66-25.52,7.97,0,7.15.77,9.3,22.7,9.3v10.8c-20.13,0-21.54,1.83-21.54,9.47s1.28,9.31,25.13,9.47v21.76h-33.73v-103.17Z"/>
    <path class="cls-1" d="M205.92,61.33h-3.57v-1.7h9.16v1.7h-3.57v9.64h-2.02v-9.64Z"/>
    <path class="cls-1" d="M213.37,59.64h2.03v4.55h3.88v-4.55h2.03v11.34h-2.03v-5.02h-3.88v5.02h-2.03v-11.34Z"/>
    <path class="cls-1" d="M224.33,59.64h7.27v1.7h-5.25v2.9h4.45v1.7h-4.45v3.35h5.43v1.7h-7.44v-11.34Z"/>
    <path class="cls-1" d="M206.16,202.91c0-3.6,1.76-5.62,4.3-5.62s4.3,2.02,4.3,5.62-1.76,5.72-4.3,5.72-4.3-2.06-4.3-5.72ZM212.76,202.91c0-2.51-.91-3.93-2.3-3.93s-2.3,1.42-2.3,3.93.91,4.03,2.3,4.03,2.3-1.45,2.3-4.03Z"/>
    <path class="cls-1" d="M217.47,197.49h7v1.64h-5.05v3.1h4.3v1.64h-4.3v4.56h-1.95v-10.94Z"/>
    <path class="cls-1" d="M239.43,197.49h2.29l3.54,10.94h-2.07l-1.64-5.82c-.33-1.15-.68-2.39-.98-3.61h-.07c-.31,1.21-.63,2.45-.96,3.61l-1.67,5.82h-1.99l3.54-10.94ZM237.99,203.94h5.13v1.54h-5.13v-1.54Z"/>
  </g>
</svg>