<?xml version="1.0" encoding="UTF-8"?>
<svg id="Layer_2" data-name="Layer 2" xmlns="http://www.w3.org/2000/svg" viewBox="0 0 182.56 241.83">
  <defs>
    <style>
      .cls-1 {
        fill: none;
      }
    </style>
  </defs>
  <g id="Layer_1-2" data-name="Layer 1">
    <path class="cls-1" d="M49.33,67.19c.96,18.38,6.31,21.81,26.16,20.94l1.31,24.95c-25.75,1.18-33.82-6.17-36.32-53.87C38.1,13.86,46.94,4.78,72.55,3.27l2.18,41.63c-22.97,1.37-26.34,4.26-25.4,22.29Z"/>
    <path class="cls-1" d="M106.8,108.63c-19.59,1.03-23.26-13.66-25.84-62.87-1.4-26.63.67-44.82,16.87-45.67,17.33-.91,22.76,4.22,25.54,57.3,2.15,40.97-4.4,50.6-16.58,51.24ZM100.37,38.82c-11.05.58-11.97,9.59-11.19,24.42.78,14.84,4.03,23.95,13.7,23.45,9.67-.51,13.18-7.96,12.3-24.81-.88-16.85-3.88-23.63-14.81-23.06Z"/>
    <path class="cls-1" d="M164.25,106.29c-.97-4.17-4.54-26.64-6.43-26.54-2.13.11-3.55,25.88-3.9,31.14l-15.45.81L124.03,4.46l8.16-.43c4.38,28.34,6.71,43.93,8.57,52.96,1.66,7.69,2.09,11.05,4.47,10.93,2.89-.15,4.22-13.24,4.88-60.6l7.66-.4c3.07,22.49,4.62,35.25,6.14,42.62,1.22,6.53,1.51,9.72,3.9,9.59,3.52-.18,5-7.87,7.84-57.03l6.91-.36-4.38,103.83-13.94.73Z"/>
    <path class="cls-1" d="M0,228.31l3.25-30.89c11.43.69,14.91-4.71,16.76-22.34l6.4-60.93,9.01.95-5.47,52.03c-5.61,53.39-8.78,63.06-29.95,61.18Z"/>
    <path class="cls-1" d="M48.89,232.42c-17.76-1.87-16.52-22.09-7.56-107.36l9.13.96c-5.71,55.57-5.87,67.94,2.88,68.86,4.63.49,8.02-1.7,10.72-12.95,1.33-5.46,2.47-12.63,3.58-22.02,1.08-9.05,2.26-20.3,3.89-35.74l7.25.76c-9.46,89.98-12.63,109.32-29.88,107.51Z"/>
    <path class="cls-1" d="M86.35,125.2l9.75,1.03-10.9,103.74-9.75-1.03,10.9-103.74Z"/>
    <path class="cls-1" d="M105.54,188.14c-1.92,18.3,2.82,22.53,22.55,24.77l-2.61,24.85c-25.62-2.86-32.43-11.38-27.44-58.89,4.75-45.16,14.9-52.74,40.43-50.22l-4.36,41.45c-22.9-2.24-26.68.08-28.57,18.04Z"/>
    <path class="cls-1" d="M145.5,134.14l32.14,3.38-3.65,34.74c-23.89-2.51-25.06-.93-25.73,5.43-.76,7.22-.24,9.48,21.14,11.73l-1.15,10.91c-19.63-2.06-21.2-.36-22.01,7.36-.78,7.39.26,9.53,23.5,12.14l-2.31,21.99-32.89-3.46,10.96-104.23Z"/>
  </g>
</svg>