<?xml version="1.0" encoding="UTF-8"?>
<svg id="Layer_2" data-name="Layer 2" xmlns="http://www.w3.org/2000/svg" viewBox="0 0 136.43 116.29">
  <defs>
    <style>
      .cls-1 {
        fill: #fff;
      }
    </style>
  </defs>
  <g id="Layer_1-2" data-name="Layer 1">
    <g>
      <path class="cls-1" d="M8.27,40.29c0,6.81,1,8.61,25.23,8.61v10c-21.95.14-23.81,1.39-23.95,29.32H0V3.33h34.64v29.46c-25.66.14-26.37,1.94-26.37,7.5Z"/>
      <path class="cls-1" d="M61.16,72.25c-9.27,0-10.98,2.92-13.12,14.03h-11.83L47.9,0h24.38l12.97,90.31h-8.7c-2-14.87-3.85-18.06-15.4-18.06ZM58.17,32.23c-1,0-5.13.14-7.84,14.73-2.28,12.64.71,15.98,7.84,15.98,7.56,0,12.26-2.22,9.12-15.98-3.14-13.75-7.98-14.73-9.12-14.73Z"/>
      <path class="cls-1" d="M116.47,89.06c.28,8.75,2.57,9.59,11.4,9.59v15.01c-2.14,1.11-5.7,2.64-9.55,2.64-7.84,0-9.98-3.06-9.98-27.79-15.82-2.64-19.24-17.09-19.24-52.1,0-21.95,3.56-35.85,21.81-35.85,19.67,0,25.52,3.47,25.52,47.24,0,31.54-6.84,40.15-19.96,41.26ZM112.77,31.4c-12.12,0-13.69,6.11-13.69,18.06s2.99,18.34,13.69,18.34,15.11-4.72,15.11-18.34-2.99-18.06-15.11-18.06Z"/>
    </g>
  </g>
</svg>