<?xml version="1.0" encoding="UTF-8"?>
<svg id="Layer_2" data-name="Layer 2" xmlns="http://www.w3.org/2000/svg" viewBox="0 0 300.64 119.06">
  <defs>
    <style>
      .cls-1 {
        fill: #fff;
      }
    </style>
  </defs>
  <g id="Layer_1-2" data-name="Layer 1">
    <g>
      <path class="cls-1" d="M7.93,66.88c0,18.83,4.86,22.64,23.57,22.81v25.57c-24.28-.17-31.5-8.12-31.5-57.02S8.76,2.94,32.92,2.77v42.68c-21.67.17-24.99,2.94-24.99,21.43Z"/>
      <path class="cls-1" d="M59.93,112.32c-18.48,0-21.2-15.21-21.2-65.66C38.73,19.36,41.57.87,56.85.87c16.34,0,21.2,5.53,21.2,59.96,0,41.99-6.63,51.49-18.12,51.49ZM57.32,40.61c-10.42,0-11.72,9.16-11.72,24.36s2.61,24.71,11.72,24.71,12.79-7.43,12.79-24.71-2.49-24.36-12.79-24.36Z"/>
      <path class="cls-1" d="M114.05,113.01c-.71-4.32-2.96-27.47-4.74-27.47-2.01,0-4.62,26.26-5.21,31.62h-14.57L81.24,6.74h7.7c2.72,29.2,4.15,45.27,5.45,54.6,1.18,7.95,1.42,11.4,3.67,11.4,2.72,0,4.62-13.31,7.58-61.69h7.22c1.78,23.15,2.61,36.29,3.67,43.89.83,6.74.95,10.02,3.2,10.02,3.32,0,5.09-7.78,10.19-57.89h6.51l-9.24,105.92h-13.15Z"/>
    </g>
    <g>
      <path class="cls-1" d="M142.54,119.06v-31.79c10.78-.52,13.5-6.39,13.5-24.54V0h8.53v53.57c0,54.95-2.01,65.14-22.03,65.49Z"/>
      <path class="cls-1" d="M188.73,118.02c-16.82,0-17.65-20.74-17.65-108.51h8.65c.12,57.19,1.18,69.81,9.47,69.81,4.38,0,7.34-2.59,8.76-14.34.71-5.7,1.07-13.13,1.18-22.81.12-9.33.12-20.91.12-36.81h6.87c0,92.62-1.07,112.66-17.41,112.66Z"/>
      <path class="cls-1" d="M213.24,4.84h9.24v106.79h-9.24V4.84Z"/>
      <path class="cls-1" d="M237.4,66.87c0,18.83,4.86,22.64,23.57,22.81v25.57c-24.28-.17-31.5-8.12-31.5-57.02S238.23,2.94,262.39,2.76v42.68c-21.67.17-24.99,2.94-24.99,21.43Z"/>
      <path class="cls-1" d="M269.5,7.6h30.44v35.77c-22.62,0-23.57,1.73-23.57,8.29,0,7.43.71,9.68,20.96,9.68v11.23c-18.59,0-19.9,1.9-19.9,9.85s1.18,9.68,23.21,9.85v22.64h-31.15V7.6Z"/>
    </g>
  </g>
</svg>