<?xml version="1.0" encoding="UTF-8"?>
<svg id="Layer_2" data-name="Layer 2" xmlns="http://www.w3.org/2000/svg" viewBox="0 0 147.4 238.94">
  <defs>
    <style>
      .cls-1 {
        fill: none;
      }
    </style>
  </defs>
  <g id="Layer_1-2" data-name="Layer 1">
    <path class="cls-1" d="M39.09,71.85c-1.9,0-4.4,5.51-11.88,37.1h-5.59c-3.56-15.88-5.46-24.39-7.01-29.41-1.19-4.34-1.66-6.18-3.33-6.18-4.75,0-3.8,6.18-3.8,37.75H.12L0,4.18h10.93c11.05,54.31,15.33,59.15,16.87,59.15,1.78,0,6.18-4.34,16.99-63.33h6.3v116.29h-7.84c0-40.27-2.26-44.45-4.16-44.45Z"/>
    <path class="cls-1" d="M59.45,5.85h9.27v103.26h-9.27V5.85Z"/>
    <path class="cls-1" d="M77.04,1.17h8.44v35.43c0,44.11,2.38,46.45,18.89,46.61v24.9h-27.33V1.17Z"/>
    <path class="cls-1" d="M145.74,113.12h-11.64c-2.02-26.41-4.75-27.58-11.29-27.58-4.28,0-6.54,2.5-6.66,26.23h-6.41V4.84h8.91c0,43.28,1.07,50.64,2.73,50.64,1.9,0,4.87-9.36,15.45-52.47h10.58l-14.97,54.64c8.91,7.02,10.45,17.39,13.3,55.48Z"/>
    <path class="cls-1" d="M14.81,190.98c0,18.22,5.17,21.89,25.11,22.05v24.73c-25.87-.16-33.57-7.85-33.57-55.14s9.34-53.47,35.08-53.63v41.26c-23.09.16-26.62,2.84-26.62,20.72Z"/>
    <path class="cls-1" d="M67.07,214.87c-8.2,0-9.72,3.51-11.61,16.88h-10.48l10.35-103.76h21.58l11.49,108.6h-7.7c-1.77-17.88-3.41-21.73-13.63-21.73ZM64.43,166.75c-.88,0-4.55.18-6.94,17.71-2.02,15.21.63,19.21,6.94,19.21,6.68,0,10.85-2.67,8.08-19.21-2.78-16.54-7.07-17.71-8.08-17.71Z"/>
    <path class="cls-1" d="M108.36,205.85c-2.4-5.35-3.66-9.02-5.43-9.02-4.04,0-2.52,10.86-2.52,42.11h-7.19v-109.61h7.19c8.08,32.26,15.02,53.3,17.42,53.3,2.27,0,3.28-11.03,3.28-59.98h9.97v112.94h-10.73c-5.55-13.86-9.21-23.39-11.99-29.74Z"/>
    <path class="cls-1" d="M93.22,124.75h1.39v-4.2h-1.39v-.73h3.64v.73h-1.39v4.2h1.39v.73h-3.64v-.73Z"/>
    <path class="cls-1" d="M98.31,119.81h.93l1.66,3.37.53,1.19h.02c-.03-.57-.12-1.25-.12-1.87v-2.7h.83v5.67h-.93l-1.65-3.37-.53-1.19h-.02c.03.59.12,1.24.12,1.84v2.72h-.83v-5.67Z"/>
    <path class="cls-1" d="M110.12,119.81h1.01l1.87,5.67h-.93l-.91-3.09c-.18-.61-.37-1.25-.53-1.89h-.03c-.17.64-.35,1.27-.53,1.89l-.93,3.09h-.89l1.87-5.67ZM109.3,123.16h2.63v.69h-2.63v-.69Z"/>
  </g>
</svg>