<?xml version="1.0" encoding="UTF-8"?>
<svg id="Layer_2" data-name="Layer 2" xmlns="http://www.w3.org/2000/svg" viewBox="0 0 346.44 140.19">
  <defs>
    <style>
      .cls-1 {
        fill: #fff;
      }
    </style>
  </defs>
  <g id="Layer_1-2" data-name="Layer 1">
    <g>
      <path class="cls-1" d="M17.74,114.25c-3.77.33-2.42,5.63-.91,22.92l-7.28.64L0,28.67c37.07-3.06,39.15,1.82,42.87,44.3,1.81,20.66.14,33.49-8.17,38.28l15.83,27.54-15.96,1.4c-11.27-21.69-14.32-26.16-16.82-25.94ZM21.94,63.81c-9.3.81-10.06,6.62-9.04,18.22,1,11.42,3.92,17.25,12.08,16.53,8.16-.71,11.16-5.55,10.03-18.47-1.15-13.1-3.77-17.1-13.07-16.28Z"/>
      <path class="cls-1" d="M46.76,28.99l32.28-2.82,3.04,34.75c-23.99,2.1-24.85,3.87-24.29,10.24.63,7.22,1.58,9.34,23.06,7.46l.95,10.91c-19.72,1.73-20.94,3.69-20.26,11.42.65,7.4,2.08,9.3,25.46,7.42l1.92,22-33.04,2.89-9.12-104.26Z"/>
      <path class="cls-1" d="M115.91,129.01l-7.41.65c-6.17-70.52-6.97-72.31-21.04-71.25l-3.04-34.75,36.68-3.21,2.64,30.23c-15.44,1.35-14.31,4.3-7.83,78.34Z"/>
      <path class="cls-1" d="M157.83,121.79c-19.6,1.71-23.78-12.81-28.06-61.84-2.32-26.52-.87-44.75,15.33-46.17,17.34-1.52,22.95,3.41,27.58,56.29,3.57,40.81-2.65,50.65-14.84,51.72ZM148.97,52.35c-11.06.97-11.66,9.99-10.37,24.77,1.29,14.78,4.86,23.77,14.54,22.92,9.68-.85,12.93-8.41,11.46-25.19-1.47-16.79-4.7-23.45-15.63-22.49Z"/>
      <path class="cls-1" d="M192.95,98.92c-3.77.33-2.42,5.63-.91,22.92l-7.28.64-9.55-109.14c37.07-3.06,39.15,1.82,42.87,44.3,1.81,20.66.14,33.49-8.17,38.28l15.83,27.54-15.96,1.4c-11.27-21.69-14.32-26.16-16.82-25.94ZM197.14,48.48c-9.3.81-10.06,6.62-9.04,18.22,1,11.42,3.92,17.25,12.08,16.53,8.16-.71,11.16-5.55,10.03-18.47-1.15-13.1-3.77-17.1-13.07-16.28Z"/>
      <path class="cls-1" d="M249.5,117.33l-7.41.65c-6.17-70.52-6.97-72.31-21.04-71.25l-3.04-34.75,36.68-3.21,2.64,30.23c-15.46,1.35-14.31,4.3-7.83,78.34Z"/>
      <path class="cls-1" d="M261.55,10.2l32.28-2.82,3.04,34.75c-23.99,2.1-24.85,3.87-24.29,10.24.63,7.22,1.58,9.34,23.06,7.46l.95,10.91c-19.72,1.73-20.94,3.69-20.26,11.42.65,7.4,2.08,9.3,25.46,7.42l1.92,22-33.04,2.89-9.12-104.26Z"/>
      <path class="cls-1" d="M310.5,107.92L301.11.63c27.76-2.43,39.78.42,43.26,40.22,5.01,57.24,3.42,63.65-33.87,67.08ZM321.94,36.21c-7.78.68-9.53,5.39-7.79,25.2,1.84,21,4.24,23.83,10.02,23.33,12.56-1.1,14.82-5.7,13.27-23.33-1.85-21.16-4.82-26.14-15.5-25.2Z"/>
    </g>
  </g>
</svg>