<?xml version="1.0" encoding="UTF-8"?>
<svg id="Layer_2" data-name="Layer 2" xmlns="http://www.w3.org/2000/svg" viewBox="0 0 237.85 272.81">
  <defs>
    <style>
      .cls-1 {
        fill: none;
        stroke: #000;
        stroke-miterlimit: 10;
        stroke-width: .25px;
      }
    </style>
  </defs>
  <g id="Layer_1-2" data-name="Layer 1">
    <path class="cls-1" d="M77.21,123.75c-2.42.74-.3,5.66,4.72,22.06l-4.68,1.43-31.63-103.47c23.83-7.12,26.34-2.66,38.65,37.61,5.99,19.59,7.86,32.06,3.47,37.59l16.87,24.61-10.24,3.13c-12.49-19.51-15.54-23.45-17.16-22.96ZM68.28,74.96c-5.97,1.82-5.12,7.48-1.76,18.47s6.59,16.08,11.83,14.48c5.24-1.6,6.1-6.56,2.36-18.82-3.8-12.42-6.46-15.95-12.43-14.13Z"/>
    <path class="cls-1" d="M76.64,38.8l20.72-6.34,10.08,32.95c-15.4,4.71-15.56,6.49-13.71,12.55,2.09,6.84,3.21,8.76,16.99,4.55l3.16,10.35c-12.66,3.87-13.01,5.89-10.77,13.21,2.14,7.01,3.53,8.67,18.57,4.24l6.38,20.86-21.2,6.48-30.22-98.85Z"/>
    <path class="cls-1" d="M136.09,126.81L99.05,30.73l5.16-1.58c21.36,55.44,23.17,57.32,25.67,56.56,3.06-.94,4.03-3.84-10.32-65.77l5-1.53,23.55,104.72-12.01,3.67Z"/>
    <path class="cls-1" d="M128.05,20.3l6.29-1.92,30.08,98.38-6.29,1.92-30.08-98.38Z"/>
    <path class="cls-1" d="M140.77,19.2l20.72-6.34,10.08,32.95c-15.4,4.71-15.56,6.49-13.71,12.55,2.09,6.84,3.21,8.76,16.99,4.55l3.16,10.35c-12.66,3.87-13.01,5.89-10.77,13.21,2.14,7.01,3.53,8.67,18.57,4.24l6.38,20.86-21.2,6.48-30.22-98.85Z"/>
    <path class="cls-1" d="M215.94,102.39c-1.7-3.83-9.75-24.69-10.96-24.32-1.37.42,4.25,25.15,5.36,30.22l-9.92,3.03L163.68,11.32l5.24-1.6c10.08,26.33,15.57,40.85,19.09,49.17,3.05,7.08,4.18,10.21,5.71,9.74,1.85-.57-.6-13.22-12.21-58.41l4.92-1.5c7.73,20.96,12,32.89,14.86,39.67,2.46,6.04,3.47,9.04,5,8.57,2.26-.69,1.28-8.22-9.37-55.44l4.43-1.36,23.54,99.5-8.95,2.74Z"/>
    <path class="cls-1" d="M149.91,199.23c1.27,18.1,4.97,21.51,18.27,20.75l1.72,24.58c-17.25,1.04-22.92-6.24-26.2-53.24-3.12-44.67,2.51-53.57,19.65-54.94l2.87,41.02c-15.38,1.25-17.55,4.07-16.3,21.83Z"/>
    <path class="cls-1" d="M189.9,240.32c-13.12.92-16.08-13.56-19.47-62.05-1.83-26.24-1.06-44.14,9.79-44.9,11.61-.81,15.43,4.26,19.08,56.57,2.82,40.36-1.25,49.82-9.41,50.39ZM183.23,171.54c-7.4.52-7.71,9.38-6.69,23.99,1.02,14.61,3.51,23.61,9.98,23.16,6.47-.45,8.58-7.77,7.42-24.38-1.16-16.6-3.4-23.29-10.72-22.78Z"/>
    <path class="cls-1" d="M228.4,238.29c-.8-4.12-3.95-26.25-5.21-26.16-1.43.1-1.52,25.47-1.57,30.65l-10.35.72-13.31-105.7,5.47-.38c3.9,27.93,5.98,43.3,7.54,52.2,1.38,7.58,1.78,10.89,3.38,10.78,1.93-.14,2.39-13.01,1.24-59.66l5.13-.36c2.82,22.17,4.29,34.75,5.56,42,1.04,6.44,1.34,9.59,2.94,9.47,2.36-.16,3.09-7.72,3.34-56.13l4.63-.32.56,102.24-9.33.65Z"/>
    <path class="cls-1" d="M.14,259l4.79-30.25c7.66.7,10.46-4.57,13.19-21.84l9.45-59.69,6,.95-8.07,50.97c-8.28,52.28-11.23,61.75-25.36,59.86Z"/>
    <path class="cls-1" d="M32.79,263.16c-11.83-1.87-9.28-21.68,3.94-105.21l6.08.96c-8.54,54.44-9.69,66.56-3.86,67.48,3.08.49,5.55-1.65,8.33-12.67,1.36-5.35,2.73-12.38,4.27-21.57,1.49-8.87,3.24-19.88,5.63-35.01l4.83.76c-13.96,88.13-17.73,107.07-29.22,105.25Z"/>
    <path class="cls-1" d="M67.09,158.2l6.5,1.03-16.09,101.61-6.5-1.03,16.09-101.61Z"/>
    <path class="cls-1" d="M74.74,219.92c-2.84,17.92,0,22.08,13.13,24.32l-3.85,24.34c-17.04-2.86-20.92-11.23-13.55-57.77,7-44.22,14.49-51.64,31.51-49.11l-6.43,40.61c-15.27-2.25-18.01.02-20.8,17.61Z"/>
    <path class="cls-1" d="M106.25,167.1l21.4,3.39-5.39,34.04c-15.91-2.52-16.83-.98-17.82,5.27-1.12,7.07-.96,9.28,13.28,11.54l-1.69,10.69c-13.07-2.07-14.27-.41-15.47,7.16-1.15,7.24-.63,9.34,14.84,11.95l-3.41,21.54-21.9-3.47,16.17-102.1Z"/>
    <path d="M226.27,104.13h-1.38v-.71h3.6v.71h-1.38v4.05h-.85v-4.05Z"/>
    <path d="M229.29,103.42h.84v1.91h1.93v-1.91h.84v4.77h-.84v-2.11h-1.93v2.11h-.84v-4.77Z"/>
    <path d="M234.12,103.42h2.87v.71h-2.02v1.22h1.71v.71h-1.71v1.41h2.1v.71h-2.94v-4.77Z"/>
    <path d="M124.95,244.63c0-1.54.86-2.45,2.1-2.45s2.1.91,2.1,2.45-.86,2.49-2.1,2.49-2.1-.95-2.1-2.49ZM128.28,244.63c0-1.07-.48-1.72-1.23-1.72s-1.23.65-1.23,1.72.48,1.75,1.23,1.75,1.23-.68,1.23-1.75Z"/>
    <path d="M130.11,242.26h2.88v.71h-2.03v1.35h1.73v.71h-1.73v1.99h-.84v-4.77Z"/>
    <path d="M136.22,242.26h.99l1.55,4.77h-.89l-.73-2.54c-.15-.5-.29-1.05-.43-1.57h-.03c-.13.53-.27,1.07-.42,1.57l-.73,2.54h-.86l1.55-4.77ZM135.59,245.07h2.24v.66h-2.24v-.66Z"/>
  </g>
</svg>