<?xml version="1.0" encoding="UTF-8"?>
<svg id="Layer_2" data-name="Layer 2" xmlns="http://www.w3.org/2000/svg" viewBox="0 0 204.65 204.65">
  <defs>
    <style>
      .cls-1 {
        fill: #fff;
      }

      .cls-2 {
        fill: #3e292a;
      }
    </style>
  </defs>
  <g id="Layer_1-2" data-name="Layer 1">
    <g>
      <rect class="cls-2" width="204.65" height="204.65"/>
      <g>
        <path class="cls-1" d="M45.49,59.12c0,14.8,4.58,17.79,22.22,17.92v20.09c-22.89-.14-29.7-6.38-29.7-44.8,0-36.52,8.26-43.45,31.04-43.58v33.53c-20.43.14-23.56,2.31-23.56,16.84Z"/>
        <path class="cls-1" d="M94.51,94.82c-17.42,0-19.99-11.95-19.99-51.59,0-21.45,2.68-35.98,17.08-35.98,15.41,0,19.99,4.34,19.99,47.11,0,32.99-6.25,40.46-17.08,40.46ZM92.05,38.48c-9.83,0-11.05,7.2-11.05,19.14s2.46,19.41,11.05,19.41c8.6,0,12.06-5.84,12.06-19.41,0-13.58-2.34-19.14-12.06-19.14Z"/>
        <path class="cls-1" d="M145.54,95.37c-.67-3.39-2.79-21.59-4.47-21.59-1.9,0-4.35,20.64-4.91,24.85h-13.73s-7.82-86.75-7.82-86.75h7.26c2.57,22.94,3.91,35.57,5.14,42.9,1.12,6.25,1.34,8.96,3.46,8.96,2.57,0,4.35-10.45,7.15-48.47h6.81c1.67,18.19,2.46,28.51,3.46,34.48.78,5.29.89,7.87,3.01,7.87,3.13,0,4.8-6.11,9.6-45.48h6.14s-8.71,83.23-8.71,83.23h-12.39Z"/>
      </g>
      <g>
        <path class="cls-1" d="M27.79,197.4v-24.98c10.16-.41,12.73-5.02,12.73-19.28v-49.28s8.04,0,8.04,0v42.09c0,43.17-1.9,51.18-20.77,51.46Z"/>
        <path class="cls-1" d="M71.34,196.58c-15.86,0-16.64-16.29-16.64-85.26h8.15c.11,44.94,1.12,54.85,8.93,54.85,4.13,0,6.92-2.04,8.26-11.27.67-4.48,1-10.32,1.12-17.92.11-7.33.11-16.43.11-28.92h6.48c0,72.77-1,88.52-16.41,88.52Z"/>
        <path class="cls-1" d="M94.45,107.66h8.71s0,83.9,0,83.9h-8.71s0-83.9,0-83.9Z"/>
        <path class="cls-1" d="M117.23,156.4c0,14.8,4.58,17.79,22.22,17.92v20.09c-22.89-.14-29.7-6.38-29.7-44.8,0-36.52,8.26-43.45,31.04-43.58v33.53c-20.43.14-23.56,2.31-23.56,16.84Z"/>
        <path class="cls-1" d="M147.49,109.83h28.7s0,28.1,0,28.1c-21.33,0-22.22,1.36-22.22,6.52,0,5.84.67,7.6,19.76,7.6v8.82c-17.53,0-18.76,1.49-18.76,7.74s1.12,7.6,21.89,7.74v17.79s-29.37,0-29.37,0v-84.31Z"/>
      </g>
    </g>
  </g>
</svg>