<?xml version="1.0" encoding="UTF-8"?>
<svg id="Layer_2" data-name="Layer 2" xmlns="http://www.w3.org/2000/svg" viewBox="0 0 119.06 300.64">
  <defs>
    <style>
      .cls-1 {
        fill: #fff;
      }
    </style>
  </defs>
  <g id="Layer_1-2" data-name="Layer 1">
    <g>
      <path class="cls-1" d="M66.88,292.71c18.83,0,22.64-4.86,22.81-23.57h25.57c-.17,24.28-8.12,31.5-57.02,31.5s-55.29-8.76-55.47-32.92h42.68c.17,21.67,2.94,24.99,21.43,24.99Z"/>
      <path class="cls-1" d="M112.32,240.72c0,18.48-15.21,21.2-65.66,21.2-27.3,0-45.79-2.84-45.79-18.12,0-16.34,5.53-21.2,59.96-21.2,41.99,0,51.49,6.63,51.49,18.12ZM40.61,243.32c0,10.42,9.16,11.72,24.36,11.72s24.71-2.61,24.71-11.72-7.43-12.79-24.71-12.79-24.36,2.49-24.36,12.79Z"/>
      <path class="cls-1" d="M113.01,186.6c-4.32.71-27.47,2.96-27.47,4.74,0,2.01,26.26,4.62,31.62,5.21v14.57l-110.42,8.29v-7.7c29.2-2.72,45.27-4.15,54.6-5.45,7.95-1.18,11.4-1.42,11.4-3.67,0-2.72-13.31-4.62-61.69-7.58v-7.22c23.15-1.78,36.29-2.61,43.89-3.67,6.74-.83,10.02-.95,10.02-3.2,0-3.32-7.78-5.09-57.89-10.19v-6.51l105.92,9.24v13.15Z"/>
    </g>
    <g>
      <path class="cls-1" d="M119.06,158.1h-31.79c-.52-10.78-6.39-13.5-24.54-13.5H0v-8.53h53.57c54.95,0,65.14,2.01,65.49,22.03Z"/>
      <path class="cls-1" d="M118.02,111.91c0,16.82-20.74,17.65-108.51,17.65v-8.65c57.19-.12,69.81-1.18,69.81-9.47,0-4.38-2.59-7.34-14.34-8.76-5.7-.71-13.13-1.07-22.81-1.18-9.33-.12-20.91-.12-36.81-.12v-6.87c92.62,0,112.66,1.07,112.66,17.41Z"/>
      <path class="cls-1" d="M4.84,87.4v-9.24h106.79v9.24H4.84Z"/>
      <path class="cls-1" d="M66.87,63.24c18.83,0,22.64-4.86,22.81-23.57h25.57c-.17,24.28-8.12,31.5-57.02,31.5S2.94,62.41,2.76,38.25h42.68c.17,21.67,2.94,24.99,21.43,24.99Z"/>
      <path class="cls-1" d="M7.6,31.15V.71h35.77c0,22.62,1.73,23.57,8.29,23.57,7.43,0,9.68-.71,9.68-20.96h11.23c0,18.59,1.9,19.9,9.85,19.9s9.68-1.18,9.85-23.21h22.64v31.15H7.6Z"/>
    </g>
  </g>
</svg>